<svg width="24" height="24" viewBox="0 0 24 24" fill="none" xmlns="http://www.w3.org/2000/svg">
<path d="M14.283 3.50106L6.51005 11.4751C6.37352 11.6151 6.29712 11.803 6.29712 11.9986C6.29712 12.1941 6.37352 12.382 6.51005 12.5221L14.283 20.4991C14.3466 20.5644 14.4227 20.6163 14.5067 20.6517C14.5906 20.6872 14.6809 20.7054 14.772 20.7054C14.8632 20.7054 14.9534 20.6872 15.0374 20.6517C15.1214 20.6163 15.1975 20.5644 15.261 20.4991C15.3919 20.3651 15.4651 20.1853 15.4651 19.998C15.4651 19.8108 15.3919 19.631 15.261 19.497L7.95155 11.9986L15.261 4.50156C15.3914 4.36768 15.4644 4.18819 15.4644 4.00131C15.4644 3.81443 15.3914 3.63494 15.261 3.50106C15.1975 3.43575 15.1214 3.38383 15.0374 3.34839C14.9534 3.31294 14.8632 3.29468 14.772 3.29468C14.6809 3.29468 14.5906 3.31294 14.5067 3.34839C14.4227 3.38383 14.3466 3.43575 14.283 3.50106Z" fill="black"/>
</svg>
