<svg width="18" height="19" viewBox="0 0 18 19" fill="none" xmlns="http://www.w3.org/2000/svg">
<path d="M16 0.5H2C0.9 0.5 0 1.4 0 2.5V16.5C0 17.6 0.9 18.5 2 18.5H16C17.1 18.5 18 17.6 18 16.5V2.5C18 1.4 17.1 0.5 16 0.5ZM7.71 13.79C7.61749 13.8827 7.5076 13.9563 7.38662 14.0064C7.26565 14.0566 7.13597 14.0824 7.005 14.0824C6.87403 14.0824 6.74435 14.0566 6.62338 14.0064C6.5024 13.9563 6.39251 13.8827 6.3 13.79L2.71 10.2C2.61742 10.1074 2.54398 9.99751 2.49387 9.87654C2.44377 9.75558 2.41798 9.62593 2.41798 9.495C2.41798 9.36407 2.44377 9.23442 2.49387 9.11346C2.54398 8.99249 2.61742 8.88258 2.71 8.79C2.80258 8.69742 2.91249 8.62398 3.03346 8.57387C3.15442 8.52377 3.28407 8.49798 3.415 8.49798C3.54593 8.49798 3.67558 8.52377 3.79654 8.57387C3.91751 8.62398 4.02742 8.69742 4.12 8.79L7 11.67L13.88 4.79C14.067 4.60302 14.3206 4.49798 14.585 4.49798C14.8494 4.49798 15.103 4.60302 15.29 4.79C15.477 4.97698 15.582 5.23057 15.582 5.495C15.582 5.75943 15.477 6.01302 15.29 6.2L7.71 13.79Z" fill="#5E5E5E"/>
</svg>
