<svg width="12" height="13" viewBox="0 0 12 13" fill="none" xmlns="http://www.w3.org/2000/svg">
<g clip-path="url(#clip0_849_6602)">
<path d="M10.0312 5.23438C10.0312 5.08854 9.98438 4.96875 9.89062 4.875L9.17969 4.17188C9.08073 4.07292 8.96354 4.02344 8.82812 4.02344C8.69271 4.02344 8.57552 4.07292 8.47656 4.17188L5.28906 7.35156L3.52344 5.58594C3.42448 5.48698 3.30729 5.4375 3.17188 5.4375C3.03646 5.4375 2.91927 5.48698 2.82031 5.58594L2.10938 6.28906C2.01562 6.38281 1.96875 6.5026 1.96875 6.64844C1.96875 6.78906 2.01562 6.90625 2.10938 7L4.9375 9.82812C5.03646 9.92708 5.15365 9.97656 5.28906 9.97656C5.42969 9.97656 5.54948 9.92708 5.64844 9.82812L9.89062 5.58594C9.98438 5.49219 10.0312 5.375 10.0312 5.23438ZM12 6.5C12 7.58854 11.7318 8.59245 11.1953 9.51172C10.6589 10.431 9.93099 11.1589 9.01172 11.6953C8.09245 12.2318 7.08854 12.5 6 12.5C4.91146 12.5 3.90755 12.2318 2.98828 11.6953C2.06901 11.1589 1.34115 10.431 0.804688 9.51172C0.268229 8.59245 0 7.58854 0 6.5C0 5.41146 0.268229 4.40755 0.804688 3.48828C1.34115 2.56901 2.06901 1.84115 2.98828 1.30469C3.90755 0.768229 4.91146 0.5 6 0.5C7.08854 0.5 8.09245 0.768229 9.01172 1.30469C9.93099 1.84115 10.6589 2.56901 11.1953 3.48828C11.7318 4.40755 12 5.41146 12 6.5Z" fill="#00A4A4"/>
</g>
<defs>
<clipPath id="clip0_849_6602">
<rect width="12" height="12" fill="white" transform="translate(0 0.5)"/>
</clipPath>
</defs>
</svg>
