<svg width="32" height="32" viewBox="0 0 32 32" fill="none" xmlns="http://www.w3.org/2000/svg">
<path d="M0 16C0 7.16344 7.16344 0 16 0C24.8366 0 32 7.16344 32 16C32 24.8366 24.8366 32 16 32C7.16344 32 0 24.8366 0 16Z" fill="#FFF3AA"/>
<circle cx="9.60002" cy="12.8001" r="3.2" fill="white"/>
<circle r="3.2" transform="matrix(-1 0 0 1 22.4001 12.8001)" fill="white"/>
<circle cx="10.4002" cy="11.9999" r="1.6" fill="#2F3332"/>
<circle r="1.6" transform="matrix(-1 0 0 1 23.2002 11.9999)" fill="#2F3332"/>
<path d="M9.59998 19.2C13.3647 22.4 18.6353 22.4 22.4 19.2" stroke="#2F3332" stroke-width="1.6" stroke-linecap="round"/>
<circle cx="4.80005" cy="18.3999" r="4" fill="#FFD6D6" fill-opacity="0.6"/>
<circle cx="27.2" cy="18.3999" r="4" fill="#FFD6D6" fill-opacity="0.6"/>
</svg>
