<svg width="32" height="32" viewBox="0 0 32 32" fill="none" xmlns="http://www.w3.org/2000/svg">
<path d="M0 16C0 7.16344 7.16344 0 16 0C24.8366 0 32 7.16344 32 16C32 24.8366 24.8366 32 16 32C7.16344 32 0 24.8366 0 16Z" fill="#FA9D9F"/>
<circle cx="9.21477" cy="13.5999" r="3.2" fill="white"/>
<circle r="3.2" transform="matrix(-1 0 0 1 22.8148 13.5999)" fill="white"/>
<circle cx="10.0147" cy="13.6" r="1.6" fill="#2F3332"/>
<circle r="1.6" transform="matrix(-1 0 0 1 22.0147 13.6)" fill="#2F3332"/>
<path d="M5.59997 8.33453C7.54343 6.77111 11.997 8.39009 12.6852 10.9102" stroke="#2F3332" stroke-width="1.6" stroke-linecap="round"/>
<path d="M26.4465 8.33453C24.5031 6.77111 20.0495 8.39009 19.3613 10.9102" stroke="#2F3332" stroke-width="1.6" stroke-linecap="round"/>
<path d="M23.1999 24H8.79993C9.26444 22.4 10.9241 20 16.2322 20C21.3419 20 22.7354 22.4 23.1999 24Z" fill="white" stroke="#2F3332" stroke-width="1.28" stroke-linecap="round"/>
<line x1="12.7999" y1="20" x2="12.7999" y2="24" stroke="#2F3332" stroke-width="1.6"/>
<line x1="15.9998" y1="20" x2="15.9998" y2="24" stroke="#2F3332" stroke-width="1.6"/>
<line x1="19.1999" y1="20" x2="19.1999" y2="24" stroke="#2F3332" stroke-width="1.6"/>
</svg>
