<svg width="32" height="32" viewBox="0 0 32 32" fill="none" xmlns="http://www.w3.org/2000/svg">
<path d="M0 16C0 7.16344 7.16344 0 16 0C24.8366 0 32 7.16344 32 16C32 24.8366 24.8366 32 16 32C7.16344 32 0 24.8366 0 16Z" fill="#B0ECEC"/>
<line x1="20.1077" y1="8.12418" x2="26.4401" y2="9.0516" stroke="#2F3332" stroke-width="1.6" stroke-linecap="round"/>
<line x1="0.8" y1="-0.8" x2="7.2" y2="-0.8" transform="matrix(-0.989445 0.14491 0.14491 0.989445 12.7158 8.7998)" stroke="#2F3332" stroke-width="1.6" stroke-linecap="round"/>
<circle cx="9.60002" cy="13.5999" r="3.2" fill="white"/>
<circle r="3.2" transform="matrix(-1 0 0 1 23.2 13.5999)" fill="white"/>
<circle cx="10.4" cy="14.3998" r="1.6" fill="#2F3332"/>
<circle r="1.6" transform="matrix(-1 0 0 1 22.4001 14.3998)" fill="#2F3332"/>
<path d="M8.80005 22.4001C11.2 20.0001 20 20.0001 22.8 22.4001" stroke="#2F3332" stroke-width="1.6" stroke-linecap="round"/>
</svg>
