<svg width="32" height="32" viewBox="0 0 32 32" fill="none" xmlns="http://www.w3.org/2000/svg">
<path d="M0 16C0 7.16344 7.16344 0 16 0C24.8366 0 32 7.16344 32 16C32 24.8366 24.8366 32 16 32C7.16344 32 0 24.8366 0 16Z" fill="#FFD3AB"/>
<circle cx="9.60002" cy="13.5999" r="3.2" fill="white"/>
<circle r="3.2" transform="matrix(-1 0 0 1 22.4001 13.5999)" fill="white"/>
<circle cx="9.60012" cy="12.8" r="1.6" fill="#2F3332"/>
<circle r="1.6" transform="matrix(-1 0 0 1 22.4001 12.8)" fill="#2F3332"/>
<path d="M20.7753 19.0706C17.5504 15.7711 14.7753 16.2059 11.5753 19.4798C8.37527 22.7538 9.57527 24.8 11.5753 24.8H20.7753C22.7753 24.8 24.3753 22.7538 20.7753 19.0706Z" fill="#FF8989" fill-opacity="0.56" stroke="#2F3332" stroke-width="1.28" stroke-linecap="round"/>
<path d="M19.2 18.8001C17.9999 20.0001 14.8 20.0001 13.6 18.8001C13.2 18.4001 14.8 16.8001 16.4 16.8C18.0669 16.8 19.6 18.4001 19.2 18.8001Z" fill="white" stroke="#2F3332" stroke-width="1.12" stroke-linecap="round"/>
<path d="M25.6228 7.19992C24.4944 5.08297 20.4719 5.14218 19.2235 7.29412" stroke="#2F3332" stroke-width="1.6" stroke-linecap="round"/>
<path d="M12.8227 7.19992C11.6943 5.08297 7.6719 5.14218 6.42344 7.29412" stroke="#2F3332" stroke-width="1.6" stroke-linecap="round"/>
</svg>
