<svg width="26" height="24" viewBox="0 0 26 24" fill="none" xmlns="http://www.w3.org/2000/svg">
<g clip-path="url(#clip0_845_6499)">
<path d="M18.4 22.4H7.14996C6.93329 22.4 6.74579 22.4792 6.58746 22.6375C6.42912 22.7958 6.34995 22.9833 6.34995 23.2C6.34995 23.4167 6.42912 23.6042 6.58746 23.7625C6.74579 23.9208 6.93329 24 7.14996 24H18.4C18.6166 24 18.8041 23.9208 18.9625 23.7625C19.1208 23.6042 19.2 23.4167 19.2 23.2C19.2 22.9833 19.1208 22.7958 18.9625 22.6375C18.8041 22.4792 18.6166 22.4 18.4 22.4ZM25.425 2.25C25.4083 2.15 25.375 2.0625 25.325 1.9875C25.275 1.9125 25.2166 1.84583 25.15 1.7875C25.0833 1.72917 25.0083 1.68333 24.925 1.65C24.8416 1.61667 24.75 1.6 24.65 1.6H20.725V0.8C20.725 0.583333 20.65 0.395833 20.5 0.2375C20.35 0.0791667 20.1583 0 19.925 0H5.54995C5.33329 0 5.14579 0.0791667 4.98745 0.2375C4.82912 0.395833 4.74995 0.583333 4.74995 0.8V1.6H0.949955C0.833288 1.6 0.716621 1.62917 0.599955 1.6875C0.483288 1.74583 0.387455 1.82083 0.312455 1.9125C0.237455 2.00417 0.191621 2.11667 0.174955 2.25C0.158288 2.33333 0.137455 2.45417 0.112455 2.6125C0.0874547 2.77083 0.070788 3.04583 0.0624547 3.4375C0.0541213 3.82917 0.0749547 4.2125 0.124955 4.5875C0.174955 4.9625 0.287455 5.37917 0.462455 5.8375C0.637455 6.29583 0.874955 6.70833 1.17495 7.075C2.05829 8.175 3.40829 8.75 5.22495 8.8C5.74162 10.3333 6.60412 11.6083 7.81246 12.625C9.02079 13.6417 10.3916 14.2333 11.925 14.4V19.975H9.54996C9.31662 19.975 9.12496 20.0542 8.97496 20.2125C8.82495 20.3708 8.74996 20.5583 8.74996 20.775C8.74996 20.9917 8.82495 21.1792 8.97496 21.3375C9.12496 21.4958 9.31662 21.575 9.54996 21.575H16C16.2166 21.575 16.4041 21.4958 16.5625 21.3375C16.7208 21.1792 16.8 20.9917 16.8 20.775C16.8 20.5583 16.7208 20.3708 16.5625 20.2125C16.4041 20.0542 16.2166 19.975 16 19.975H13.525V14.4C15.075 14.2333 16.4541 13.6417 17.6625 12.625C18.8708 11.6083 19.7333 10.3333 20.25 8.8C21.1833 8.78333 22 8.62917 22.7 8.3375C23.4 8.04583 23.975 7.625 24.425 7.075C25.3583 5.925 25.7083 4.41667 25.475 2.55C25.4583 2.43333 25.4416 2.33333 25.425 2.25ZM2.39995 6.075C1.84995 5.39167 1.60829 4.43333 1.67495 3.2H4.74995V6.1625L4.76245 6.425L4.78745 6.675L4.81245 6.925L4.84995 7.175C4.29995 7.125 3.82079 7.00833 3.41245 6.825C3.00412 6.64167 2.66662 6.39167 2.39995 6.075ZM19.125 5.9C19.125 6.83333 18.9583 7.72917 18.625 8.5875C18.2916 9.44583 17.8375 10.1875 17.2625 10.8125C16.6875 11.4375 16.0083 11.9333 15.225 12.3C14.4416 12.6667 13.6166 12.85 12.75 12.85C10.9833 12.85 9.47496 12.1708 8.22496 10.8125C6.97496 9.45417 6.34995 7.81667 6.34995 5.9V1.6H19.125V5.9ZM23.2 6.075C22.9166 6.39167 22.5625 6.64583 22.1375 6.8375C21.7125 7.02917 21.2083 7.14167 20.625 7.175C20.6583 6.95833 20.6833 6.74583 20.7 6.5375C20.7166 6.32917 20.725 6.11667 20.725 5.9V3.2H23.925C23.975 4.43333 23.7333 5.39167 23.2 6.075Z" fill="#666666"/>
</g>
<defs>
<clipPath id="clip0_845_6499">
<rect width="25.6" height="24" fill="white"/>
</clipPath>
</defs>
</svg>
