<svg width="32" height="32" viewBox="0 0 32 32" fill="none" xmlns="http://www.w3.org/2000/svg">
<rect width="32" height="32" rx="16" fill="#FBDC3F"/>
<path d="M16 6C22.6274 6 28 10.1874 28 15.3543C28 20.52 22.6274 24.7074 16 24.7074C15.3401 24.7078 14.6808 24.6658 14.0263 24.5817L8.98857 27.8766C8.416 28.1794 8.21371 28.1463 8.44914 27.4046L9.46857 23.2011C6.17714 21.5326 4 18.6411 4 15.3543C4 10.1886 9.37257 6 16 6ZM22.7509 15.2114L24.4309 13.584C24.5278 13.4833 24.5819 13.349 24.5817 13.2092C24.5815 13.0694 24.5271 12.9352 24.43 12.8348C24.3328 12.7343 24.2004 12.6755 24.0607 12.6707C23.921 12.666 23.785 12.7156 23.6811 12.8091L21.4777 14.9417V13.1794C21.4777 13.0364 21.4209 12.8992 21.3197 12.798C21.2186 12.6968 21.0814 12.64 20.9383 12.64C20.7952 12.64 20.658 12.6968 20.5569 12.798C20.4557 12.8992 20.3989 13.0364 20.3989 13.1794V16.1017C20.3786 16.1851 20.3786 16.2721 20.3989 16.3554V18C20.3989 18.1431 20.4557 18.2803 20.5569 18.3814C20.658 18.4826 20.7952 18.5394 20.9383 18.5394C21.0814 18.5394 21.2186 18.4826 21.3197 18.3814C21.4209 18.2803 21.4777 18.1431 21.4777 18V16.4423L21.9657 15.9703L23.5977 18.2937C23.6385 18.3517 23.6902 18.4011 23.7501 18.4391C23.8099 18.4771 23.8767 18.503 23.9465 18.5152C24.0163 18.5274 24.0879 18.5257 24.1571 18.5103C24.2262 18.4948 24.2917 18.4659 24.3497 18.4251C24.4077 18.3844 24.4571 18.3326 24.4951 18.2728C24.5331 18.2129 24.559 18.1462 24.5712 18.0764C24.5834 18.0065 24.5817 17.935 24.5663 17.8658C24.5508 17.7966 24.5219 17.7311 24.4811 17.6731L22.7509 15.2103V15.2114ZM19.3703 17.4103H17.7017V13.1966C17.6953 13.058 17.6358 12.9271 17.5354 12.8313C17.4351 12.7354 17.3016 12.682 17.1629 12.682C17.0241 12.682 16.8907 12.7354 16.7903 12.8313C16.6899 12.9271 16.6304 13.058 16.624 13.1966V17.9497C16.624 18.2469 16.864 18.4891 17.1623 18.4891H19.3703C19.5134 18.4891 19.6506 18.4323 19.7517 18.3311C19.8529 18.23 19.9097 18.0928 19.9097 17.9497C19.9097 17.8066 19.8529 17.6694 19.7517 17.5683C19.6506 17.4671 19.5134 17.4103 19.3703 17.4103V17.4103ZM12.6766 16.1623L13.472 14.2114L14.2011 16.1623H12.6766V16.1623ZM15.56 16.72L15.5623 16.7017C15.562 16.5658 15.5101 16.4351 15.4171 16.336L14.2217 13.136C14.1716 12.9835 14.0761 12.8499 13.9481 12.7531C13.8201 12.6563 13.6655 12.6009 13.5051 12.5943C13.3436 12.5936 13.1856 12.6421 13.0523 12.7333C12.919 12.8246 12.8167 12.9543 12.7589 13.1051L10.8606 17.7623C10.8338 17.8279 10.8202 17.8981 10.8205 17.9689C10.8209 18.0398 10.8352 18.1099 10.8626 18.1752C10.89 18.2405 10.9301 18.2998 10.9804 18.3496C11.0307 18.3995 11.0904 18.4389 11.156 18.4657C11.2216 18.4925 11.2918 18.5061 11.3627 18.5058C11.4335 18.5054 11.5036 18.4911 11.5689 18.4637C11.6342 18.4363 11.6935 18.3962 11.7433 18.3459C11.7932 18.2955 11.8326 18.2359 11.8594 18.1703L12.2366 17.2411H14.6023L14.944 18.1554C14.9672 18.2238 15.0039 18.2868 15.052 18.3406C15.1 18.3945 15.1583 18.4383 15.2235 18.4692C15.2888 18.5001 15.3595 18.5177 15.4316 18.5207C15.5038 18.5238 15.5758 18.5124 15.6434 18.4872C15.711 18.4619 15.7729 18.4234 15.8253 18.3738C15.8778 18.3242 15.9197 18.2646 15.9487 18.1985C15.9777 18.1324 15.9932 18.0611 15.9941 17.9889C15.9951 17.9168 15.9815 17.8451 15.9543 17.7783L15.56 16.72V16.72ZM11.7634 13.2023C11.7634 13.0594 11.7068 12.9224 11.6058 12.8213C11.5049 12.7201 11.368 12.6632 11.2251 12.6629H7.51657C7.37351 12.6629 7.2363 12.7197 7.13514 12.8209C7.03398 12.922 6.97714 13.0592 6.97714 13.2023C6.97714 13.3454 7.03398 13.4826 7.13514 13.5837C7.2363 13.6849 7.37351 13.7417 7.51657 13.7417H8.84229V18.0114C8.84229 18.1545 8.89912 18.2917 9.00028 18.3929C9.10144 18.494 9.23865 18.5509 9.38171 18.5509C9.52478 18.5509 9.66199 18.494 9.76315 18.3929C9.86431 18.2917 9.92114 18.1545 9.92114 18.0114V13.7417H11.224C11.3671 13.7417 11.5043 13.6849 11.6054 13.5837C11.7066 13.4826 11.7634 13.3454 11.7634 13.2023V13.2023Z" fill="#3B292A"/>
</svg>
