<svg width="18" height="18" viewBox="0 0 18 18" fill="none" xmlns="http://www.w3.org/2000/svg">
<mask id="path-1-inside-1_792_6530" fill="white">
<path fill-rule="evenodd" clip-rule="evenodd" d="M12.0921 3C10.8587 3 9.72848 3.60538 9 4.6015C8.26978 3.60538 7.14125 3 5.90791 3C3.75393 3 2 4.85098 2 7.1239C2 8.19156 2.38607 9.20786 3.09009 9.98201L8.6017 15.8266C8.82181 16.0578 9.17819 16.0578 9.3983 15.8266L14.8051 10.0902C15.5703 9.31426 16 8.2576 16 7.1239C16 4.85098 14.2461 3 12.0921 3Z"/>
</mask>
<path d="M9 4.6015L7.95154 5.37009L9.00126 6.80204L10.0493 5.36889L9 4.6015ZM3.09009 9.98201L2.12832 10.8567L2.13623 10.8654L2.1443 10.8739L3.09009 9.98201ZM8.6017 15.8266L7.6559 16.7186L7.66027 16.7231L8.6017 15.8266ZM9.3983 15.8266L10.3397 16.7232L10.3443 16.7183L9.3983 15.8266ZM14.8051 10.0902L13.8794 9.17748L13.8691 9.18792L13.8591 9.19858L14.8051 10.0902ZM12.0921 1.7C10.4211 1.7 8.91009 2.52218 7.95066 3.8341L10.0493 5.36889C10.5469 4.68857 11.2964 4.3 12.0921 4.3V1.7ZM10.0485 3.8329C9.0881 2.52285 7.57976 1.7 5.90791 1.7V4.3C6.70275 4.3 7.45145 4.6879 7.95154 5.37009L10.0485 3.8329ZM5.90791 1.7C2.97093 1.7 0.7 4.19982 0.7 7.1239H3.3C3.3 5.50215 4.53693 4.3 5.90791 4.3V1.7ZM0.7 7.1239C0.7 8.50574 1.2005 9.8364 2.12832 10.8567L4.05186 9.10737C3.57165 8.57932 3.3 7.87738 3.3 7.1239H0.7ZM2.1443 10.8739L7.65591 16.7185L9.54749 14.9347L4.03588 9.09011L2.1443 10.8739ZM7.66027 16.7231C8.39271 17.4923 9.60729 17.4923 10.3397 16.7231L8.45688 14.9301C8.74909 14.6233 9.25091 14.6233 9.54312 14.9301L7.66027 16.7231ZM10.3443 16.7183L15.7511 10.9819L13.8591 9.19858L8.45229 14.935L10.3443 16.7183ZM15.7308 11.003C16.7428 9.97665 17.3 8.58909 17.3 7.1239H14.7C14.7 7.92612 14.3977 8.65187 13.8794 9.17748L15.7308 11.003ZM17.3 7.1239C17.3 4.19982 15.0291 1.7 12.0921 1.7V4.3C13.4631 4.3 14.7 5.50215 14.7 7.1239H17.3Z" fill="#FF5555" mask="url(#path-1-inside-1_792_6530)"/>
</svg>
