<svg width="24" height="24" viewBox="0 0 24 24" fill="none" xmlns="http://www.w3.org/2000/svg">
<path d="M12.4922 15.4922C12.3828 15.6016 12.3125 15.7188 12.2812 15.8438C12.25 15.9688 12.25 16.0977 12.2812 16.2305C12.3125 16.3633 12.3828 16.4766 12.4922 16.5703C12.5547 16.6328 12.6328 16.6836 12.7266 16.7227C12.8203 16.7617 12.9141 16.7812 13.0078 16.7812C13.2109 16.7812 13.3906 16.7109 13.5469 16.5703L17.9766 12.0234L13.5469 7.47656C13.3906 7.32031 13.2109 7.24219 13.0078 7.24219C12.8047 7.24219 12.6328 7.32031 12.4922 7.47656C12.4297 7.52344 12.3828 7.57422 12.3516 7.62891C12.3203 7.68359 12.2969 7.74219 12.2812 7.80469C12.2656 7.86719 12.2578 7.92969 12.2578 7.99219C12.2578 8.05469 12.2656 8.11719 12.2812 8.17969C12.2969 8.24219 12.3203 8.30469 12.3516 8.36719C12.3828 8.42969 12.4297 8.48438 12.4922 8.53125L15.1875 11.25H0.75C0.546875 11.25 0.371094 11.3203 0.222656 11.4609C0.0742188 11.6016 0 11.7773 0 11.9883C0 12.1992 0.0742188 12.3789 0.222656 12.5273C0.371094 12.6758 0.546875 12.75 0.75 12.75H15.2344L12.4922 15.4922ZM22.5 0H9C8.73438 0 8.48438 0.0664062 8.25 0.199219C8.01562 0.332031 7.83203 0.515625 7.69922 0.75C7.56641 0.984375 7.5 1.23438 7.5 1.5V8.25H9.02344V2.41406C9.02344 2.25781 9.0625 2.10938 9.14062 1.96875C9.21875 1.82812 9.32812 1.71484 9.46875 1.62891C9.60938 1.54297 9.75781 1.5 9.91406 1.5H21.5625C21.8125 1.5 22.0273 1.58984 22.207 1.76953C22.3867 1.94922 22.4766 2.16406 22.4766 2.41406L22.5 21.5859C22.5 21.8359 22.4102 22.0508 22.2305 22.2305C22.0508 22.4102 21.8359 22.5 21.5859 22.5H9.91406C9.66406 22.5 9.45312 22.4102 9.28125 22.2305C9.10938 22.0508 9.02344 21.8359 9.02344 21.5859V15.7266H7.5V22.5C7.5 22.9219 7.64844 23.2773 7.94531 23.5664C8.24219 23.8555 8.59375 24 9 24H22.5C22.9219 24 23.2773 23.8555 23.5664 23.5664C23.8555 23.2773 24 22.9219 24 22.5V1.5C24 0.890625 23.7266 0.445312 23.1797 0.164062C22.9609 0.0546875 22.7344 0 22.5 0Z" fill="#00D9D9"/>
</svg>
