<svg width="25" height="24" viewBox="0 0 25 24" fill="none" xmlns="http://www.w3.org/2000/svg">
<path d="M24.2109 12.0234L12.9375 0.234375C12.875 0.15625 12.7969 0.0976562 12.7031 0.0585938C12.6094 0.0195312 12.5078 0 12.3984 0C12.1953 0 12.0156 0.078125 11.8594 0.234375L0.539052 12.0234C0.445302 12.1328 0.382802 12.25 0.351552 12.375C0.320302 12.5 0.324209 12.6289 0.363271 12.7617C0.402334 12.8945 0.46874 13.0078 0.56249 13.1016C0.640615 13.1641 0.726552 13.2148 0.820302 13.2539C0.914052 13.293 1.0078 13.3086 1.10155 13.3008C1.1953 13.293 1.28905 13.2695 1.3828 13.2305C1.47655 13.1914 1.55468 13.1406 1.61718 13.0781L2.64843 12.0234V23.25C2.64843 23.4531 2.71874 23.6289 2.85936 23.7773C2.99999 23.9258 3.17968 24 3.39843 24H8.62499C8.68749 24 8.74608 23.9922 8.80077 23.9766C8.85546 23.9609 8.90624 23.9414 8.95311 23.918C8.99999 23.8945 9.04686 23.8633 9.09374 23.8242C9.14061 23.7852 9.17968 23.7461 9.21093 23.707C9.24218 23.668 9.26952 23.625 9.29296 23.5781C9.3164 23.5312 9.33593 23.4766 9.35155 23.4141C9.36718 23.3516 9.37499 23.2969 9.37499 23.25L9.39843 15.75H15.375V23.25C15.375 23.4531 15.4492 23.6289 15.5976 23.7773C15.7461 23.9258 15.9219 24 16.125 24H21.375C21.5781 24 21.7539 23.9258 21.9023 23.7773C22.0508 23.6289 22.125 23.4531 22.125 23.25V12.0234L23.1328 13.0781C23.2734 13.2344 23.4531 13.3125 23.6719 13.3125C23.875 13.3125 24.0469 13.2422 24.1875 13.1016C24.3281 12.9453 24.4023 12.7656 24.4101 12.5625C24.418 12.3594 24.3516 12.1797 24.2109 12.0234ZM20.625 10.6641V22.5H16.875V15C16.875 14.7969 16.8008 14.6211 16.6523 14.4727C16.5039 14.3242 16.3281 14.25 16.125 14.25H8.64843C8.4453 14.25 8.26952 14.3242 8.12108 14.4727C7.97265 14.6211 7.89843 14.7969 7.89843 15L7.87499 22.5H4.14843V10.6641C4.14843 10.6016 4.14061 10.5391 4.12499 10.4766L12.3984 1.85156L20.6484 10.4766C20.6328 10.5391 20.625 10.6016 20.625 10.6641Z" fill="#00D9D9"/>
</svg>
