<svg width="32" height="32" viewBox="0 0 32 32" fill="none" xmlns="http://www.w3.org/2000/svg">
<rect width="32" height="32" rx="16" fill="#1CD9D9"/>
<path d="M17.3724 14.6276C16.6443 13.8998 15.657 13.491 14.6276 13.491C13.5982 13.491 12.6109 13.8998 11.8828 14.6276L9.13712 17.3724C8.40903 18.1004 8 19.0879 8 20.1176C8 21.1473 8.40903 22.1348 9.13712 22.8628C9.8652 23.5909 10.8527 24 11.8824 24C12.912 24 13.8995 23.5909 14.6276 22.8628L16 21.4904" stroke="white" stroke-width="3" stroke-linecap="round" stroke-linejoin="round"/>
<path d="M14.6277 17.3724C15.3558 18.1002 16.343 18.509 17.3725 18.509C18.4019 18.509 19.3892 18.1002 20.1173 17.3724L22.863 14.6276C23.5911 13.8995 24.0001 12.912 24.0001 11.8824C24.0001 10.8527 23.5911 9.8652 22.863 9.13712C22.1349 8.40903 21.1474 8 20.1177 8C19.0881 8 18.1006 8.40903 17.3725 9.13712L16.0001 10.5095" stroke="white" stroke-width="3" stroke-linecap="round" stroke-linejoin="round"/>
</svg>
