<svg width="20" height="20" viewBox="0 0 20 20" fill="none" xmlns="http://www.w3.org/2000/svg">
<rect width="20" height="20" rx="10" fill="white"/>
<path d="M16.4502 11.7766L15.4268 10.9016C15.4752 10.6047 15.5002 10.3016 15.5002 9.99843C15.5002 9.69531 15.4752 9.39218 15.4268 9.09531L16.4502 8.22031C16.5274 8.15422 16.5826 8.06621 16.6086 7.96796C16.6346 7.86972 16.63 7.76589 16.5955 7.67031L16.5814 7.62968C16.2997 6.84222 15.8778 6.11224 15.3361 5.47499L15.308 5.44218C15.2423 5.36492 15.1547 5.30938 15.0568 5.28288C14.9589 5.25638 14.8553 5.26017 14.7596 5.29374L13.4893 5.74531C13.0205 5.36093 12.4971 5.05781 11.9314 4.84531L11.6861 3.51718C11.6676 3.41725 11.6192 3.32531 11.5471 3.25358C11.4751 3.18186 11.383 3.13374 11.283 3.11562L11.2408 3.10781C10.4268 2.96093 9.57051 2.96093 8.75645 3.10781L8.71426 3.11562C8.61426 3.13374 8.52213 3.18186 8.45013 3.25358C8.37812 3.32531 8.32964 3.41725 8.31114 3.51718L8.06426 4.85156C7.50315 5.0641 6.98061 5.36706 6.51739 5.74843L5.2377 5.29374C5.14202 5.2599 5.03831 5.25598 4.94035 5.28249C4.84238 5.30901 4.75481 5.3647 4.68926 5.44218L4.66114 5.47499C4.12011 6.11269 3.69829 6.84255 3.41582 7.62968L3.40176 7.67031C3.33145 7.86562 3.38926 8.08437 3.54707 8.22031L4.58301 9.10468C4.53457 9.39843 4.51114 9.69843 4.51114 9.99687C4.51114 10.2969 4.53457 10.5969 4.58301 10.8891L3.54707 11.7734C3.46988 11.8395 3.41463 11.9275 3.38867 12.0258C3.36272 12.124 3.36728 12.2278 3.40176 12.3234L3.41582 12.3641C3.69864 13.1516 4.11739 13.8781 4.66114 14.5187L4.68926 14.5516C4.75497 14.6288 4.84255 14.6844 4.94045 14.7109C5.03836 14.7374 5.14199 14.7336 5.2377 14.7L6.51739 14.2453C6.98301 14.6281 7.50332 14.9312 8.06426 15.1422L8.31114 16.4766C8.32964 16.5765 8.37812 16.6684 8.45013 16.7402C8.52213 16.8119 8.61426 16.86 8.71426 16.8781L8.75645 16.8859C9.57799 17.0336 10.4193 17.0336 11.2408 16.8859L11.283 16.8781C11.383 16.86 11.4751 16.8119 11.5471 16.7402C11.6192 16.6684 11.6676 16.5765 11.6861 16.4766L11.9314 15.1484C12.4968 14.9365 13.0232 14.6324 13.4893 14.2484L14.7596 14.7C14.8553 14.7338 14.959 14.7378 15.0569 14.7112C15.1549 14.6847 15.2425 14.629 15.308 14.5516L15.3361 14.5187C15.8799 13.8766 16.2986 13.1516 16.5814 12.3641L16.5955 12.3234C16.6658 12.1312 16.608 11.9125 16.4502 11.7766ZM14.3174 9.27968C14.3564 9.51562 14.3768 9.75781 14.3768 9.99999C14.3768 10.2422 14.3564 10.4844 14.3174 10.7203L14.2143 11.3469L15.3814 12.3453C15.2045 12.7529 14.9812 13.1388 14.7158 13.4953L13.2658 12.9812L12.7752 13.3844C12.4018 13.6906 11.9861 13.9312 11.5361 14.1L10.9408 14.3234L10.6611 15.8391C10.2198 15.8891 9.77431 15.8891 9.33301 15.8391L9.05332 14.3203L8.4627 14.0937C8.01739 13.925 7.60332 13.6844 7.23301 13.3797L6.74239 12.975L5.28301 13.4937C5.01739 13.1359 4.79551 12.75 4.61739 12.3437L5.79707 11.3359L5.69551 10.7109C5.65801 10.4781 5.6377 10.2375 5.6377 9.99999C5.6377 9.76093 5.65645 9.52187 5.69551 9.28906L5.79707 8.66406L4.61739 7.65624C4.79395 7.24843 5.01739 6.86406 5.28301 6.50624L6.74239 7.02499L7.23301 6.62031C7.60332 6.31562 8.01739 6.07499 8.4627 5.90624L9.05489 5.68281L9.33457 4.16406C9.77364 4.11406 10.2221 4.11406 10.6627 4.16406L10.9424 5.67968L11.5377 5.90312C11.9861 6.07187 12.4033 6.31249 12.7768 6.61874L13.2674 7.02187L14.7174 6.50781C14.983 6.86562 15.2049 7.25156 15.383 7.65781L14.2158 8.65624L14.3174 9.27968ZM10.0002 7.09374C8.48145 7.09374 7.2502 8.32499 7.2502 9.84374C7.2502 11.3625 8.48145 12.5937 10.0002 12.5937C11.5189 12.5937 12.7502 11.3625 12.7502 9.84374C12.7502 8.32499 11.5189 7.09374 10.0002 7.09374ZM11.2377 11.0812C11.0754 11.244 10.8825 11.3731 10.6701 11.4611C10.4577 11.549 10.2301 11.5941 10.0002 11.5937C9.53301 11.5937 9.09395 11.4109 8.7627 11.0812C8.59992 10.9189 8.47084 10.726 8.38289 10.5137C8.29494 10.3013 8.24984 10.0736 8.2502 9.84374C8.2502 9.37656 8.43301 8.93749 8.7627 8.60624C9.09395 8.27499 9.53301 8.09374 10.0002 8.09374C10.4674 8.09374 10.9064 8.27499 11.2377 8.60624C11.4005 8.76855 11.5296 8.96145 11.6175 9.17382C11.7055 9.3862 11.7506 9.61387 11.7502 9.84374C11.7502 10.3109 11.5674 10.75 11.2377 11.0812Z" fill="#888888"/>
</svg>
