<svg width="25" height="24" viewBox="0 0 25 24" fill="none" xmlns="http://www.w3.org/2000/svg">
<g clip-path="url(#clip0_845_3693)">
<path d="M24.2108 12.0234L12.9373 0.234375C12.8748 0.15625 12.7967 0.0976562 12.703 0.0585938C12.6092 0.0195312 12.5077 0 12.3983 0C12.1952 0 12.0155 0.078125 11.8592 0.234375L0.5389 12.0234C0.44515 12.1328 0.38265 12.25 0.3514 12.375C0.32015 12.5 0.324056 12.6289 0.363118 12.7617C0.402181 12.8945 0.468587 13.0078 0.562337 13.1016C0.640462 13.1641 0.7264 13.2148 0.82015 13.2539C0.9139 13.293 1.00765 13.3086 1.1014 13.3008C1.19515 13.293 1.2889 13.2695 1.38265 13.2305C1.4764 13.1914 1.55452 13.1406 1.61702 13.0781L2.64827 12.0234V23.25C2.64827 23.4531 2.71859 23.6289 2.85921 23.7773C2.99984 23.9258 3.17952 24 3.39827 24H8.62484C8.68734 24 8.74593 23.9922 8.80062 23.9766C8.85531 23.9609 8.90609 23.9414 8.95296 23.918C8.99984 23.8945 9.04671 23.8633 9.09359 23.8242C9.14046 23.7852 9.17952 23.7461 9.21077 23.707C9.24202 23.668 9.26937 23.625 9.29281 23.5781C9.31624 23.5312 9.33577 23.4766 9.3514 23.4141C9.36702 23.3516 9.37484 23.2969 9.37484 23.25L9.39827 15.75H15.3748V23.25C15.3748 23.4531 15.4491 23.6289 15.5975 23.7773C15.7459 23.9258 15.9217 24 16.1248 24H21.3748C21.578 24 21.7537 23.9258 21.9022 23.7773C22.0506 23.6289 22.1248 23.4531 22.1248 23.25V12.0234L23.1327 13.0781C23.2733 13.2344 23.453 13.3125 23.6717 13.3125C23.8748 13.3125 24.0467 13.2422 24.1873 13.1016C24.328 12.9453 24.4022 12.7656 24.41 12.5625C24.4178 12.3594 24.3514 12.1797 24.2108 12.0234ZM20.6248 10.6641V22.5H16.8748V15C16.8748 14.7969 16.8006 14.6211 16.6522 14.4727C16.5037 14.3242 16.328 14.25 16.1248 14.25H8.64827C8.44515 14.25 8.26937 14.3242 8.12093 14.4727C7.97249 14.6211 7.89827 14.7969 7.89827 15L7.87484 22.5H4.14827V10.6641C4.14827 10.6016 4.14046 10.5391 4.12484 10.4766L12.3983 1.85156L20.6483 10.4766C20.6327 10.5391 20.6248 10.6016 20.6248 10.6641Z" fill="#666666"/>
</g>
<defs>
<clipPath id="clip0_845_3693">
<rect width="24.75" height="24" fill="white"/>
</clipPath>
</defs>
</svg>
