<svg width="20" height="20" viewBox="0 0 20 20" fill="none" xmlns="http://www.w3.org/2000/svg">
<rect width="20" height="20" rx="10" fill="#FAE100"/>
<g clip-path="url(#clip0_508_5224)">
<path d="M10 4.08652C11.0848 4.08652 12.0882 4.31368 13.01 4.76801C13.9319 5.22234 14.6607 5.84012 15.1964 6.62138C15.7321 7.40263 16 8.25479 16 9.17787C16 10.1009 15.7321 10.9543 15.1964 11.738C14.6607 12.5216 13.933 13.1406 13.0134 13.5949C12.0938 14.0493 11.0893 14.2764 10 14.2764C9.65625 14.2764 9.30134 14.25 8.93527 14.1971C7.34598 15.3846 6.5 15.9856 6.39732 16C6.34821 16.0192 6.30134 16.0168 6.2567 15.9928C6.23884 15.9784 6.22545 15.9591 6.21652 15.9351C6.20759 15.911 6.20312 15.8894 6.20312 15.8702V15.8413C6.22991 15.6538 6.43304 14.8726 6.8125 13.4976C5.95089 13.036 5.26674 12.4243 4.76004 11.6622C4.25335 10.9002 4 10.0721 4 9.17787C4 8.25479 4.26786 7.40263 4.80357 6.62138C5.33929 5.84012 6.06808 5.22234 6.98996 4.76801C7.91183 4.31368 8.91518 4.08652 10 4.08652Z" fill="black"/>
</g>
<defs>
<clipPath id="clip0_508_5224">
<rect width="12" height="12" fill="white" transform="translate(4 4)"/>
</clipPath>
</defs>
</svg>
