<svg width="29" height="30" viewBox="0 0 29 30" fill="none" xmlns="http://www.w3.org/2000/svg">
<path d="M26.9672 1.84613C26.4823 1.37993 25.9742 1.02562 25.4427 0.783192C24.9112 0.540768 24.3564 0.419556 23.7784 0.419556C22.4916 0.419556 21.3355 0.932376 20.3098 1.95802C19.9742 2.27503 14.0721 8.17713 2.60354 19.6643C2.49165 19.7762 2.40773 19.9067 2.35179 20.0559C2.2772 20.3729 1.49398 22.993 0.00213733 27.9161C-0.0911028 28.2704 -0.00718668 28.5781 0.253886 28.8391C0.272534 28.8764 0.300506 28.9044 0.337802 28.9231C0.375098 28.9417 0.407732 28.9603 0.435704 28.979C0.463676 28.9976 0.49631 29.0163 0.533606 29.0349C0.570902 29.0536 0.608198 29.0676 0.645494 29.0769L0.757382 29.1049L0.86927 29.1189C0.981158 29.1189 1.0744 29.1002 1.14899 29.0629C5.08372 27.7762 7.65715 26.9557 8.86927 26.6014C8.94386 26.5827 9.01379 26.5548 9.07906 26.5175C9.14433 26.4802 9.20494 26.4335 9.26088 26.3776C11.3868 24.2704 14.7714 20.9184 19.4147 16.3217C24.0581 11.7249 26.6035 9.19345 27.0511 8.72725C28.1513 7.58972 28.6921 6.41489 28.6735 5.20277C28.6362 4.0093 28.0674 2.89042 26.9672 1.84613ZM20.0301 4.81116C20.9625 5.03494 21.839 5.55708 22.6595 6.3776C22.9951 6.71326 23.2795 7.09555 23.5126 7.52445C23.7457 7.95336 23.8949 8.27503 23.9602 8.48949C24.0254 8.70394 24.0767 8.9044 24.114 9.09088C21.5965 11.5897 16.6641 16.4755 9.31682 23.7482C8.94386 22.8904 8.43104 22.1258 7.77836 21.4545C6.99514 20.6713 6.11869 20.0839 5.14899 19.6923L5.17696 19.6643L5.20493 19.6363L5.23291 19.6084V19.5804H5.26088L5.28885 19.5524L5.31682 19.5245V19.4965H5.34479L5.37277 19.4685L5.40074 19.4405V19.4126H5.42871L5.45668 19.3846L5.48465 19.3566V19.3286H5.51263L5.5406 19.3007L5.56857 19.2727L5.59654 19.2447V19.2168H5.62452L5.65249 19.1888L5.68046 19.1608V19.1328H5.70843L5.7364 19.1049L5.76438 19.0769L5.79235 19.0489V19.021H5.82032L5.84829 18.993L5.87626 18.965L5.90424 18.937V18.9091L5.93221 18.8811H5.96018L5.98815 18.8531L6.01612 18.8251L6.0441 18.7972V18.7692L6.07207 18.7412H6.10004L6.12801 18.7133L6.15598 18.6853L6.18396 18.6573V18.6293L6.21193 18.6014H6.2399L6.26787 18.5734L6.29584 18.5454L6.32382 18.5175L6.35179 18.4895V18.4615L6.37976 18.4335H6.40773L6.4357 18.4056L6.46368 18.3776L6.49165 18.3496L6.51962 18.3217L6.54759 18.2937V18.2657H6.57556L6.60354 18.2377L6.63151 18.2098L6.65948 18.1818L6.68745 18.1538L6.71542 18.1258L6.7434 18.0979V18.0699L6.77137 18.0419H6.79934L6.82731 18.014L6.85528 17.986L6.88326 17.958L6.91123 17.93L6.9392 17.9021L6.96717 17.8741L6.99514 17.8461V17.8182L7.02312 17.7902H7.05109L7.07906 17.7622L7.10703 17.7342L7.135 17.7063L7.16298 17.6783L7.19095 17.6503L7.21892 17.6224L7.24689 17.5944L7.27486 17.5664L7.30284 17.5384V17.5105L7.33081 17.4825L7.35878 17.4545H7.38675L7.41472 17.4265L7.4427 17.3986L7.47067 17.3706L7.49864 17.3426L7.52661 17.3147L7.55458 17.2867L7.58256 17.2587L7.61053 17.2307L7.6385 17.2028L7.66647 17.1748L7.69445 17.1468V17.1189L7.72242 17.0909L7.75039 17.0629L7.77836 17.0349H7.80633L7.83431 17.007L7.86228 16.979L7.89025 16.951L7.91822 16.9231L7.94619 16.8951L7.97416 16.8671L8.00214 16.8391L8.03011 16.8112L8.05808 16.7832L8.08605 16.7552L8.11403 16.7272L8.142 16.6993L8.16997 16.6713L8.19794 16.6433L8.22591 16.6154L8.25389 16.5874L8.28186 16.5594L8.30983 16.5314L8.3378 16.5035V16.4755L8.36577 16.4475L8.39375 16.4196L8.42172 16.3916L8.44969 16.3636L8.47766 16.3356L8.50563 16.3077L8.53361 16.2797L8.56158 16.2517L8.58955 16.2238H8.61752L8.64549 16.1958L8.67347 16.1678L8.70144 16.1398L8.72941 16.1119L8.75738 16.0839L8.78535 16.0559L8.81333 16.0279L8.8413 16L8.86927 15.972L8.89724 15.944L8.92521 15.9161L8.95319 15.8881L8.98116 15.8601L9.00913 15.8321L9.0371 15.8042L9.06507 15.7762L9.09305 15.7482L9.12102 15.7203L9.14899 15.6923L9.17696 15.6643L9.20494 15.6363L9.23291 15.6084L9.26088 15.5804L9.28885 15.5524L9.34479 15.4965L9.37277 15.4685L9.40074 15.4405L9.42871 15.4126L9.45668 15.3846L9.48465 15.3566L9.51263 15.3286L9.5406 15.3007L9.56857 15.2727L9.59654 15.2447L9.62451 15.2168L9.65249 15.1888L9.68046 15.1608L9.70843 15.1049L9.7364 15.0769L9.76437 15.0489L9.79235 15.021L9.82032 14.993L9.87626 14.965L9.90423 14.937L9.93221 14.9091L9.96018 14.8811L9.98815 14.8531L10.0161 14.8251L10.0441 14.7972L10.0721 14.7692L10.1 14.7412L10.128 14.7133L10.156 14.6853L10.184 14.6293L10.2119 14.6014L10.2399 14.5734L10.2958 14.5454L10.3238 14.5175L10.3518 14.4895L10.3798 14.4615L10.4077 14.4335L10.4357 14.4056L10.4637 14.3776L10.4916 14.3496L10.5196 14.3217L10.5476 14.2657L10.5756 14.2377L10.6035 14.2098L10.6595 14.1818L10.6875 14.1538L10.7154 14.1258L10.7434 14.0979L10.7714 14.0699L10.7993 14.0419L10.8273 14.014L10.8553 13.958L10.8833 13.93L10.9112 13.9021L10.9672 13.8741L10.9951 13.8461L11.0231 13.8182L11.0511 13.7902L11.0791 13.7622L11.107 13.7342L11.135 13.7063L11.163 13.6503L11.1909 13.6224L11.2469 13.5944L11.2749 13.5664L11.3028 13.5384L11.3308 13.5105L11.3588 13.4825L11.3868 13.4545L11.4147 13.3986L11.4427 13.3706L11.4707 13.3426L11.5266 13.3147L11.5546 13.2867L11.5826 13.2587L11.6105 13.2307L11.6385 13.2028L11.6665 13.1468L11.6944 13.1189L11.7224 13.0909L11.7784 13.0629L11.8063 13.0349L11.8343 13.007L11.8623 12.979L11.8902 12.951L11.9182 12.8951L11.9462 12.8671L12.0021 12.8391L12.0301 12.8112L12.0581 12.7832L12.0861 12.7552L12.114 12.7272L12.142 12.6713L12.17 12.6433L12.2259 12.6154L12.2539 12.5874L12.2819 12.5594L12.3098 12.5314L12.3378 12.5035L12.3658 12.4475L12.3937 12.4196L12.4497 12.3916L12.4777 12.3636L12.5056 12.3356L12.5336 12.3077L12.5616 12.2797L12.5896 12.2238L12.6175 12.1958L12.6735 12.1678L12.7014 12.1398L12.7294 12.1119L12.7574 12.0839L12.7854 12.0559L12.8133 12L12.8413 11.972L12.8972 11.944L12.9252 11.9161L12.9532 11.8881L12.9812 11.8601L13.0091 11.8042L13.0371 11.7762L13.093 11.7482L13.121 11.7203L13.149 11.6923L13.177 11.6643L13.2049 11.6084L13.2329 11.5804L13.2889 11.5524L13.3168 11.5245L13.3448 11.4965L13.3728 11.4685L13.4007 11.4126L13.4287 11.3846L13.4847 11.3566L13.5126 11.3286L13.5406 11.3007L13.5686 11.2727L13.5965 11.2168L13.6245 11.1888L13.6805 11.1608L13.7084 11.1328L13.7364 11.1049L13.7644 11.0769L13.7923 11.021L13.8203 10.993L13.8763 10.965L13.9042 10.937L13.9322 10.9091L13.9602 10.8811L13.9882 10.8251L14.0161 10.7972L14.0721 10.7692L14.1 10.7412L14.128 10.7133L14.156 10.6853L14.184 10.6293L14.2399 10.6014L14.2679 10.5734L14.2958 10.5454L14.3238 10.5175L14.3518 10.4615L14.3798 10.4335L14.4357 10.4056L14.4637 10.3776L14.4916 10.3496L14.5196 10.3217L14.5476 10.2657L14.6035 10.2377L14.6315 10.2098L14.6595 10.1818L14.6875 10.1538L14.7154 10.0979L14.7434 10.0699L14.7993 10.0419L14.8273 10.014L14.8553 9.98599L14.8833 9.95802L14.9112 9.90207L14.9672 9.8741L14.9951 9.84613L15.0231 9.81816L15.0511 9.79018L15.0791 9.73424L15.107 9.70627L15.163 9.6783L15.1909 9.65032L15.2189 9.62235L15.2469 9.59438L15.2749 9.53844L15.3308 9.51046L15.3588 9.48249L15.3868 9.45452L15.4147 9.42655L15.4427 9.3706L15.4707 9.34263L15.5266 9.31466L15.5546 9.28669L15.5826 9.25872L15.6105 9.23074L15.6385 9.1748L15.6944 9.14683L15.7224 9.11886L15.7504 9.09088L15.7784 9.06291L15.8063 9.00697L15.8343 8.979L15.8902 8.95102L15.9182 8.92305L15.9462 8.89508L15.9742 8.86711L16.0021 8.81116L16.0581 8.78319L16.0861 8.75522L16.114 8.72725L16.142 8.69928L16.17 8.64333L16.1979 8.61536L16.2539 8.58739L16.2819 8.55942L16.3098 8.53144L16.3378 8.50347L16.3658 8.44753L16.4217 8.41956L16.4497 8.39158L16.4777 8.36361L16.5056 8.33564L16.5336 8.2797L16.5616 8.25172L16.6175 8.22375L16.6455 8.19578L16.6735 8.16781L16.7014 8.13984L16.7294 8.08389L16.7574 8.05592L16.8133 8.02795L16.8413 7.99998L16.8693 7.972L16.8972 7.94403L16.9252 7.88809L16.9812 7.86012L17.0091 7.83214L17.0371 7.80417L17.0651 7.7762L17.093 7.72025L17.121 7.69228L17.177 7.66431L17.2049 7.63634L17.2329 7.60837L17.2609 7.58039L17.2889 7.52445L17.3168 7.49648L17.3728 7.46851L17.4007 7.44053L17.4287 7.41256L17.4567 7.38459L17.4847 7.35662L17.5126 7.30067L17.5406 7.2727L17.5965 7.24473L17.6245 7.21676L17.6525 7.18879L17.6805 7.16081L17.7084 7.10487L17.7364 7.0769L17.7923 7.04893L17.8203 7.02095L17.8483 6.99298L17.8763 6.96501L17.9042 6.93704L17.9322 6.88109L17.9602 6.85312L18.0161 6.82515L18.0441 6.79718L18.0721 6.76921L18.1 6.74123L18.128 6.71326L18.156 6.65732L18.184 6.62935L18.2399 6.60137L18.2679 6.5734L18.2958 6.54543L18.3238 6.51746L18.3518 6.48949L18.3798 6.43354L18.4077 6.40557L18.4357 6.3776L18.4916 6.34963L18.5196 6.32165L18.5476 6.29368L18.5756 6.26571L18.6035 6.23774L18.6315 6.18179L18.6595 6.15382L18.6875 6.12585L18.7434 6.09788L18.7714 6.06991L18.7993 6.04193L18.8273 6.01396L18.8553 5.98599L18.8833 5.95802L18.9112 5.90207L18.9392 5.8741L18.9672 5.84613L18.9951 5.81816L19.0511 5.79018L19.0791 5.76221L19.107 5.73424L19.135 5.70627L19.163 5.6783L19.1909 5.65032L19.2189 5.62235L19.2469 5.59438L19.2749 5.53844L19.3028 5.51046L19.3308 5.48249L19.3588 5.45452L19.4147 5.42655L19.4427 5.39858L19.4707 5.3706L19.4986 5.34263L19.5266 5.31466L19.5546 5.28669L19.5826 5.25872L19.6105 5.23074L19.6385 5.20277L19.6665 5.1748L19.6944 5.14683L19.7224 5.11886L19.7504 5.09088L19.7784 5.06291L19.8063 5.03494L19.8343 5.00697L19.8623 4.95102L19.8902 4.92305L19.9182 4.89508L19.9462 4.86711L19.9742 4.83914L20.0301 4.81116ZM3.91822 21.2028C4.83197 21.4452 5.68978 21.9673 6.49165 22.7692C7.12568 23.4032 7.57323 24.1492 7.83431 25.007C7.46134 25.1375 6.5709 25.4359 5.16298 25.9021C3.75505 26.3683 2.7434 26.7039 2.12801 26.9091C2.29584 26.3496 2.60354 25.3753 3.05109 23.986C3.49864 22.5967 3.78769 21.669 3.91822 21.2028ZM25.7364 7.44053C25.7364 7.45918 25.7271 7.47783 25.7084 7.49648L25.6525 7.55242L25.5686 7.63634C25.1956 6.66664 24.6548 5.81816 23.9462 5.09088C23.2003 4.34496 22.3704 3.7762 21.4567 3.38459L21.5406 3.30067L21.5965 3.24473C21.6898 3.15149 21.8063 3.04893 21.9462 2.93704C22.0861 2.82515 22.3378 2.68529 22.7014 2.51746C23.0651 2.34963 23.424 2.26571 23.7784 2.26571C24.114 2.26571 24.445 2.3403 24.7714 2.48949C25.0977 2.63867 25.4101 2.86245 25.7084 3.16081C26.0814 3.51513 26.3658 3.86944 26.5616 4.22375C26.7574 4.57806 26.8553 4.92305 26.8553 5.25872C26.8553 5.94869 26.4823 6.67597 25.7364 7.44053Z" fill="white"/>
</svg>
