<svg width="24" height="24" viewBox="0 0 24 24" fill="none" xmlns="http://www.w3.org/2000/svg">
<path d="M12 1.5C12.6094 1.5 13.2383 1.62109 13.8867 1.86328C14.5352 2.10547 15.1016 2.41016 15.5859 2.77734C16.0703 3.14453 16.4688 3.55078 16.7812 3.99609C17.0938 4.44141 17.25 4.85938 17.25 5.25V9C17.25 9.89062 17.0625 10.8828 16.6875 11.9766C16.3125 13.0703 15.7578 13.8984 15.0234 14.4609C14.8984 14.5703 14.7891 14.6992 14.6953 14.8477C14.6016 14.9961 14.5352 15.1523 14.4961 15.3164C14.457 15.4805 14.4453 15.6484 14.4609 15.8203C14.5391 16.3828 14.8281 16.7812 15.3281 17.0156L21.8672 20.1094L21.9141 20.1211L22.0078 20.1562L22.125 20.2266L22.2539 20.332L22.3711 20.4844L22.4531 20.7188L22.4766 21.0234V22.4766L1.5 22.5V20.9766C1.5 20.5859 1.71094 20.2969 2.13281 20.1094L8.71875 16.9922C9.21875 16.7578 9.50391 16.3633 9.57422 15.8086C9.64453 15.2539 9.46094 14.8047 9.02344 14.4609C8.30469 13.8828 7.74609 13.043 7.34766 11.9414C6.94922 10.8398 6.75 9.85938 6.75 9V5.25C6.75 4.73438 7.00781 4.18359 7.52344 3.59766C8.03906 3.01172 8.71094 2.51562 9.53906 2.10938C10.3672 1.70312 11.1875 1.5 12 1.5ZM12 0C10.9219 0 9.85547 0.261719 8.80078 0.785156C7.74609 1.30859 6.89062 1.98047 6.23438 2.80078C5.57812 3.62109 5.25 4.4375 5.25 5.25V9C5.25 10.0156 5.48828 11.1836 5.96484 12.5039C6.44141 13.8242 7.14844 14.8672 8.08594 15.6328L1.5 18.75C1.45312 18.7656 1.39844 18.7891 1.33594 18.8203C1.27344 18.8516 1.15625 18.9219 0.984375 19.0312C0.8125 19.1406 0.660156 19.25 0.527344 19.3594C0.394531 19.4688 0.273438 19.6055 0.164062 19.7695C0.0546875 19.9336 0 20.0859 0 20.2266V22.5C0 22.9062 0.144531 23.2539 0.433594 23.543C0.722656 23.832 1.07812 23.9766 1.5 23.9766H22.5C22.9062 23.9766 23.2539 23.832 23.543 23.543C23.832 23.2539 23.9766 22.9062 23.9766 22.5V20.2266C23.9766 20.0703 23.9258 19.9102 23.8242 19.7461C23.7227 19.582 23.5977 19.4414 23.4492 19.3242C23.3008 19.207 23.1562 19.1016 23.0156 19.0078C22.875 18.9141 22.75 18.8438 22.6406 18.7969L22.5 18.75L15.9609 15.6328C16.8984 14.8984 17.5977 13.8828 18.0586 12.5859C18.5195 11.2891 18.75 10.0938 18.75 9V5.25C18.75 4.64062 18.5508 4.01953 18.1523 3.38672C17.7539 2.75391 17.2422 2.1875 16.6172 1.6875C15.9922 1.1875 15.2656 0.78125 14.4375 0.46875C13.6094 0.15625 12.7969 0 12 0Z" fill="#666666"/>
</svg>
