<svg width="26" height="24" viewBox="0 0 26 24" fill="none" xmlns="http://www.w3.org/2000/svg">
<path d="M18.4 22.4H7.15002C6.93335 22.4 6.74585 22.4792 6.58752 22.6375C6.42918 22.7958 6.35002 22.9833 6.35002 23.2C6.35002 23.4167 6.42918 23.6042 6.58752 23.7625C6.74585 23.9208 6.93335 24 7.15002 24H18.4C18.6167 24 18.8042 23.9208 18.9625 23.7625C19.1208 23.6042 19.2 23.4167 19.2 23.2C19.2 22.9833 19.1208 22.7958 18.9625 22.6375C18.8042 22.4792 18.6167 22.4 18.4 22.4ZM25.425 2.25C25.4083 2.15 25.375 2.0625 25.325 1.9875C25.275 1.9125 25.2167 1.84583 25.15 1.7875C25.0833 1.72917 25.0083 1.68333 24.925 1.65C24.8417 1.61667 24.75 1.6 24.65 1.6H20.725V0.8C20.725 0.583333 20.65 0.395833 20.5 0.2375C20.35 0.0791667 20.1583 0 19.925 0H5.55002C5.33335 0 5.14585 0.0791667 4.98752 0.2375C4.82918 0.395833 4.75002 0.583333 4.75002 0.8V1.6H0.950016C0.833349 1.6 0.716682 1.62917 0.600016 1.6875C0.483349 1.74583 0.387516 1.82083 0.312516 1.9125C0.237516 2.00417 0.191682 2.11667 0.175016 2.25C0.158349 2.33333 0.137516 2.45417 0.112516 2.6125C0.0875157 2.77083 0.070849 3.04583 0.0625157 3.4375C0.0541824 3.82917 0.0750157 4.2125 0.125016 4.5875C0.175016 4.9625 0.287516 5.37917 0.462516 5.8375C0.637516 6.29583 0.875016 6.70833 1.17502 7.075C2.05835 8.175 3.40835 8.75 5.22502 8.8C5.74168 10.3333 6.60418 11.6083 7.81252 12.625C9.02085 13.6417 10.3917 14.2333 11.925 14.4V19.975H9.55002C9.31668 19.975 9.12502 20.0542 8.97502 20.2125C8.82502 20.3708 8.75002 20.5583 8.75002 20.775C8.75002 20.9917 8.82502 21.1792 8.97502 21.3375C9.12502 21.4958 9.31668 21.575 9.55002 21.575H16C16.2167 21.575 16.4042 21.4958 16.5625 21.3375C16.7208 21.1792 16.8 20.9917 16.8 20.775C16.8 20.5583 16.7208 20.3708 16.5625 20.2125C16.4042 20.0542 16.2167 19.975 16 19.975H13.525V14.4C15.075 14.2333 16.4542 13.6417 17.6625 12.625C18.8708 11.6083 19.7333 10.3333 20.25 8.8C21.1833 8.78333 22 8.62917 22.7 8.3375C23.4 8.04583 23.975 7.625 24.425 7.075C25.3583 5.925 25.7083 4.41667 25.475 2.55C25.4583 2.43333 25.4417 2.33333 25.425 2.25ZM2.40002 6.075C1.85002 5.39167 1.60835 4.43333 1.67502 3.2H4.75002V6.1625L4.76252 6.425L4.78752 6.675L4.81252 6.925L4.85002 7.175C4.30002 7.125 3.82085 7.00833 3.41252 6.825C3.00418 6.64167 2.66668 6.39167 2.40002 6.075ZM19.125 5.9C19.125 6.83333 18.9583 7.72917 18.625 8.5875C18.2917 9.44583 17.8375 10.1875 17.2625 10.8125C16.6875 11.4375 16.0083 11.9333 15.225 12.3C14.4417 12.6667 13.6167 12.85 12.75 12.85C10.9833 12.85 9.47502 12.1708 8.22502 10.8125C6.97502 9.45417 6.35002 7.81667 6.35002 5.9V1.6H19.125V5.9ZM23.2 6.075C22.9167 6.39167 22.5625 6.64583 22.1375 6.8375C21.7125 7.02917 21.2083 7.14167 20.625 7.175C20.6583 6.95833 20.6833 6.74583 20.7 6.5375C20.7167 6.32917 20.725 6.11667 20.725 5.9V3.2H23.925C23.975 4.43333 23.7333 5.39167 23.2 6.075Z" fill="#00D9D9"/>
</svg>
