<svg width="148" height="47" viewBox="0 0 148 47" fill="none" xmlns="http://www.w3.org/2000/svg">
<g clip-path="url(#clip0_629_7289)">
<path d="M54.9219 46.8972V0.115384C54.9216 0.101341 54.9241 0.087373 54.9295 0.0743022C54.9348 0.0612313 54.9428 0.049323 54.9529 0.0392744C54.9631 0.0292259 54.9753 0.0212423 54.9887 0.0157925C55.0021 0.0103427 55.0165 0.00753386 55.0311 0.00753785H64.2125C64.2422 0.00753785 64.2706 0.0189005 64.2916 0.0391252C64.3125 0.0593499 64.3243 0.086782 64.3243 0.115384V46.8972C64.3243 46.9258 64.3125 46.9532 64.2916 46.9735C64.2706 46.9937 64.2422 47.005 64.2125 47.005H55.0311C55.0165 47.005 55.0021 47.0022 54.9887 46.9968C54.9753 46.9913 54.9631 46.9834 54.9529 46.9733C54.9428 46.9633 54.9348 46.9513 54.9295 46.9383C54.9241 46.9252 54.9216 46.9112 54.9219 46.8972Z" fill="#23E2E2"/>
<path d="M147.946 9.08401C147.974 9.08401 148 9.03636 148 8.97867V0.115384C148 0.0551919 147.974 0.00753784 147.946 0.00753784H124.88C124.88 0.00753784 124.854 0.00753799 124.844 0.035126C124.839 0.0388594 124.835 0.0434534 124.833 0.0486274C124.83 0.0538014 124.828 0.0594497 124.828 0.0652247V25.539V27.9342C124.828 27.9944 124.852 28.042 124.88 28.042H138.59V37.921H124.875C124.849 37.921 124.828 37.9687 124.828 38.0289V46.8972C124.828 46.9549 124.849 47.005 124.875 47.005H147.888C147.948 47.005 148 46.98 148 46.9474V27.9342V19.0709C148 19.0132 147.974 18.963 147.946 18.963H134.236V9.08401H147.946Z" fill="#23E2E2"/>
<path d="M112.148 0.107846V37.921H107.793V0.107846C107.794 0.0938036 107.791 0.0798352 107.786 0.0667643C107.78 0.0536934 107.772 0.0417851 107.762 0.0317366C107.752 0.021688 107.74 0.0137006 107.727 0.00825082C107.713 0.00280104 107.699 -3.97779e-06 107.684 4.23373e-09H98.4975C98.4679 4.23373e-09 98.4394 0.0113626 98.4185 0.0315873C98.3975 0.051812 98.3857 0.0792441 98.3857 0.107846V46.8972C98.3857 46.9112 98.3886 46.9251 98.3943 46.9381C98.3999 46.951 98.4082 46.9627 98.4186 46.9725C98.429 46.9824 98.4414 46.9901 98.4549 46.9952C98.4685 47.0004 98.483 47.0028 98.4975 47.0025H121.446C121.476 47.0025 121.504 46.9911 121.525 46.9709C121.546 46.9507 121.558 46.9233 121.558 46.8947V0.107846C121.558 0.0792441 121.546 0.051812 121.525 0.0315873C121.504 0.0113626 121.476 4.23373e-09 121.446 4.23373e-09H112.259C112.23 4.23373e-09 112.201 0.0113626 112.18 0.0315873C112.159 0.051812 112.148 0.0792441 112.148 0.107846Z" fill="#23E2E2"/>
<path d="M51.6496 8.97623V0.112943C51.6499 0.0989001 51.6474 0.0849316 51.642 0.0718607C51.6367 0.0587899 51.6287 0.0468778 51.6185 0.0368292C51.6084 0.0267806 51.5962 0.018797 51.5828 0.0133473C51.5694 0.00789748 51.555 0.00509246 51.5404 0.00509644H31.0044C30.9897 0.00509644 30.9751 0.00788549 30.9616 0.0133052C30.948 0.0187248 30.9357 0.0266695 30.9253 0.0366838C30.9149 0.046698 30.9067 0.0585851 30.9011 0.0716694C30.8955 0.0847537 30.8926 0.0987803 30.8926 0.112943V46.8973C30.8926 46.9259 30.9044 46.9533 30.9253 46.9735C30.9463 46.9937 30.9747 47.0051 31.0044 47.0051H51.5404C51.555 47.0051 51.5694 47.0023 51.5828 46.9969C51.5962 46.9914 51.6084 46.9834 51.6185 46.9734C51.6287 46.9633 51.6367 46.9514 51.642 46.9383C51.6474 46.9253 51.6499 46.9113 51.6496 46.8973V38.0239C51.6499 38.0099 51.6474 37.9959 51.642 37.9829C51.6367 37.9698 51.6287 37.9579 51.6185 37.9478C51.6084 37.9378 51.5962 37.9298 51.5828 37.9244C51.5694 37.9189 51.555 37.9161 51.5404 37.9161H40.3106V28.0872H51.2155C51.2451 28.0872 51.2735 28.0759 51.2945 28.0556C51.3155 28.0354 51.3272 28.008 51.3272 27.9794V19.1236C51.3272 19.095 51.3155 19.0676 51.2945 19.0474C51.2735 19.0271 51.2451 19.0158 51.2155 19.0158H40.3236V9.08407H51.5534C51.5805 9.08095 51.6054 9.06815 51.6232 9.04818C51.641 9.02822 51.6504 9.00255 51.6496 8.97623Z" fill="#23E2E2"/>
<path d="M27.521 -0.00258614H18.3343C18.3047 -0.00258614 18.2762 0.00877647 18.2553 0.0290012C18.2343 0.0492259 18.2225 0.0766541 18.2225 0.105256V21.8973L9.40503 0.065131C9.39671 0.0451032 9.38235 0.0279429 9.36381 0.015871C9.34527 0.00379922 9.32341 -0.00263008 9.30105 -0.00258614H0.10921C0.0946505 -0.00259012 0.0802378 0.000214896 0.0668193 0.00566468C0.0534007 0.0111145 0.0412499 0.019098 0.0310769 0.0291466C0.020904 0.0391952 0.0129146 0.0511073 0.00758322 0.0641781C0.00225187 0.077249 -0.000315686 0.0912136 3.09565e-05 0.105256V46.8971C-0.000315686 46.9111 0.00225187 46.9251 0.00758322 46.9382C0.0129146 46.9512 0.020904 46.9632 0.0310769 46.9732C0.0412499 46.9832 0.0534007 46.9912 0.0668193 46.9967C0.0802378 47.0021 0.0946505 47.0049 0.10921 47.0049H9.29585C9.32549 47.0049 9.35392 46.9936 9.37489 46.9733C9.39585 46.9531 9.40763 46.9257 9.40763 46.8971V25.0775L18.2303 46.9222C18.2356 46.9353 18.2436 46.9472 18.2537 46.9573C18.2639 46.9662 18.2753 46.9738 18.2875 46.9799H18.3057H18.3291H27.5183C27.548 46.9799 27.5764 46.9685 27.5974 46.9483C27.6184 46.928 27.6301 46.9006 27.6301 46.872V0.11529C27.6316 0.100517 27.6298 0.0856162 27.625 0.071522C27.6202 0.0574277 27.6124 0.0444432 27.6022 0.0333792C27.5919 0.0223151 27.5794 0.0134106 27.5655 0.00722223C27.5515 0.00103383 27.5363 -0.00230566 27.521 -0.00258614Z" fill="#23E2E2"/>
<path d="M90.7673 18.963V0.107876C90.7673 0.0938291 90.7644 0.0799237 90.7588 0.0669775C90.7531 0.0540312 90.7449 0.0423042 90.7344 0.0324893C90.724 0.0226745 90.7117 0.0149701 90.6981 0.00982638C90.6846 0.00468268 90.6701 0.0022055 90.6556 0.00253994H67.7124C67.6832 0.00253232 67.6551 0.0135502 67.6342 0.0332356C67.6133 0.052921 67.6013 0.0797105 67.6006 0.107876V46.8972C67.6006 46.9258 67.6124 46.9532 67.6333 46.9735C67.6543 46.9937 67.6827 47.005 67.7124 47.005H95.1163V18.963H90.7673ZM77.0108 9.07901H81.3701V18.963H77.0108V9.07901ZM77.0108 28.0395H85.7061V37.9185H77.0108V28.0395Z" fill="#23E2E2"/>
</g>
<defs>
<clipPath id="clip0_629_7289">
<rect width="148" height="47" fill="white"/>
</clipPath>
</defs>
</svg>
