<svg width="25" height="25" viewBox="0 0 25 25" fill="none" xmlns="http://www.w3.org/2000/svg">
<path d="M17.9654 4.21068L20.7894 7.03335L17.9654 4.21068ZM19.7814 1.72401L12.1454 9.36001C11.7509 9.75401 11.4818 10.256 11.3721 10.8027L10.6667 14.3333L14.1974 13.6267C14.7441 13.5173 15.2454 13.2493 15.6401 12.8547L23.2761 5.21868C23.5055 4.98922 23.6876 4.7168 23.8117 4.417C23.9359 4.11719 23.9998 3.79586 23.9998 3.47135C23.9998 3.14684 23.9359 2.8255 23.8117 2.5257C23.6876 2.22589 23.5055 1.95348 23.2761 1.72401C23.0466 1.49455 22.7742 1.31253 22.4744 1.18835C22.1746 1.06416 21.8533 1.00024 21.5287 1.00024C21.2042 1.00024 20.8829 1.06416 20.5831 1.18835C20.2833 1.31253 20.0109 1.49455 19.7814 1.72401V1.72401Z" stroke="white" stroke-width="2" stroke-linecap="round" stroke-linejoin="round"/>
<path d="M21.3334 17.0001V21.0001C21.3334 21.7073 21.0524 22.3856 20.5523 22.8857C20.0522 23.3858 19.374 23.6667 18.6667 23.6667H4.00004C3.2928 23.6667 2.61452 23.3858 2.11442 22.8857C1.61433 22.3856 1.33337 21.7073 1.33337 21.0001V6.33341C1.33337 5.62617 1.61433 4.94789 2.11442 4.4478C2.61452 3.9477 3.2928 3.66675 4.00004 3.66675H8.00004" stroke="white" stroke-width="2" stroke-linecap="round" stroke-linejoin="round"/>
</svg>
