<svg width="1770" height="1080" viewBox="0 0 1770 1080" fill="none" xmlns="http://www.w3.org/2000/svg">
<g filter="url(#filter0_d_671_12452)">
<path fill-rule="evenodd" clip-rule="evenodd" d="M33.5134 339.25C6.17532 291.899 22.399 231.352 69.7499 204.014L706.967 -163.884C754.318 -191.222 814.866 -174.999 842.204 -127.648C862.842 -91.9008 858.654 -48.633 834.988 -17.8105L837.147 -19.0565C884.498 -46.3946 945.045 -30.1709 972.383 17.1801C999.721 64.531 983.497 125.078 936.146 152.417L168.75 595.473C121.399 622.811 60.8518 606.587 33.5137 559.237C6.17558 511.886 22.3992 451.338 69.7502 424L132.243 387.92C93.717 393.003 54.1518 374.997 33.5134 339.25ZM1096.74 843C1092.87 845.234 1089.21 847.689 1085.76 850.341C1082.46 851.792 1079.21 853.437 1076.02 855.28L581.517 1140.78C534.166 1168.12 517.942 1228.67 545.28 1276.02C565.918 1311.76 605.483 1329.77 644.009 1324.69L581.517 1360.77C534.166 1388.1 517.942 1448.65 545.28 1496C572.618 1543.35 633.166 1559.58 680.517 1532.24L1175.02 1246.74C1178.89 1244.51 1182.55 1242.05 1185.99 1239.4C1189.29 1237.95 1192.54 1236.3 1195.74 1234.46L1690.24 948.959C1737.59 921.621 1753.81 861.074 1726.47 813.723C1705.83 777.976 1666.27 759.969 1627.74 765.053L1690.24 728.973C1737.59 701.635 1753.81 641.087 1726.47 593.736C1699.14 546.385 1638.59 530.162 1591.24 557.5L1096.74 843Z" fill="#D1F8F8"/>
</g>
<defs>
<filter id="filter0_d_671_12452" x="0.233398" y="-197.164" width="1779.52" height="1782.68" filterUnits="userSpaceOnUse" color-interpolation-filters="sRGB">
<feFlood flood-opacity="0" result="BackgroundImageFix"/>
<feColorMatrix in="SourceAlpha" type="matrix" values="0 0 0 0 0 0 0 0 0 0 0 0 0 0 0 0 0 0 127 0" result="hardAlpha"/>
<feOffset dx="10" dy="10"/>
<feGaussianBlur stdDeviation="15"/>
<feComposite in2="hardAlpha" operator="out"/>
<feColorMatrix type="matrix" values="0 0 0 0 0 0 0 0 0 0.666667 0 0 0 0 0.666667 0 0 0 0.25 0"/>
<feBlend mode="normal" in2="BackgroundImageFix" result="effect1_dropShadow_671_12452"/>
<feBlend mode="normal" in="SourceGraphic" in2="effect1_dropShadow_671_12452" result="shape"/>
</filter>
</defs>
</svg>
