<svg width="150" height="69" viewBox="0 0 150 69" fill="none" xmlns="http://www.w3.org/2000/svg">
<path d="M43.84 46.08C43.84 50.1867 43.28 53.68 42.16 56.56C41.04 59.44 39.52 61.7867 37.6 63.6C35.7333 65.4667 33.5467 66.8 31.04 67.6C28.5333 68.4533 25.8933 68.88 23.12 68.88C20.2933 68.88 17.6267 68.4533 15.12 67.6C12.6667 66.8 10.5067 65.4667 8.64 63.6C6.77333 61.7867 5.28 59.44 4.16 56.56C3.09333 53.68 2.56 50.1867 2.56 46.08C2.56 42.0267 3.09333 38.56 4.16 35.68C5.28 32.7467 6.77333 30.3733 8.64 28.56C10.5067 26.7467 12.6667 25.4133 15.12 24.56C17.6267 23.7067 20.2933 23.28 23.12 23.28C25.8933 23.28 28.5333 23.7067 31.04 24.56C33.5467 25.4133 35.7333 26.7467 37.6 28.56C39.52 30.3733 41.04 32.7467 42.16 35.68C43.28 38.56 43.84 42.0267 43.84 46.08ZM64.96 27.04H71.92V36.8H64.96V68.88H52.4V2H64.96V27.04ZM29.44 8.4H45.76V18.16H0.56V8.4H16.88V0.159998H29.44V8.4ZM15.04 46.08C15.04 50.24 15.7333 53.4667 17.12 55.76C18.5067 58 20.5067 59.12 23.12 59.12C25.6267 59.12 27.6 58 29.04 55.76C30.5333 53.52 31.28 50.2667 31.28 46C31.28 41.84 30.5333 38.64 29.04 36.4C27.6 34.16 25.6267 33.04 23.12 33.04C20.5067 33.04 18.5067 34.1867 17.12 36.48C15.7333 38.72 15.04 41.92 15.04 46.08ZM101.234 68.08V13.36H78.4344V3.6H112.754V30.96L120.354 28.32V2H131.874V68.88H120.354V38.32L112.754 40.96V68.08H101.234ZM149.314 68.88H137.714V2H149.314V68.88Z" fill="#333333"/>
</svg>
