<svg width="182" height="102" viewBox="0 0 182 102" fill="none" xmlns="http://www.w3.org/2000/svg">
<rect width="182" height="100" fill="#23E2E2"/>
<path d="M64.16 78.8V46.56L34.64 54.64V78.8H22V15.84H34.64V45.04L64.16 36.96V15.84H76.8V78.8H64.16ZM101.037 15.84V78.8H88.3969V15.84H101.037ZM112.625 15.84H146.385C149.105 15.84 151.638 16.2133 153.985 16.96C156.332 17.7067 158.385 18.8533 160.145 20.4C161.905 21.8933 163.265 23.8133 164.225 26.16C165.238 28.4533 165.745 31.1733 165.745 34.32C165.745 37.4133 165.292 40.0267 164.385 42.16C163.478 44.24 162.198 45.9733 160.545 47.36C158.892 48.7467 156.892 49.8667 154.545 50.72C152.198 51.5733 149.585 52.2933 146.705 52.88L125.265 58V78.8H112.625V15.84ZM153.185 34.32C153.185 31.4933 152.332 29.3333 150.625 27.84C148.972 26.3467 146.812 25.6 144.145 25.6H125.265V47.44L142.785 43.84C146.145 43.2533 148.705 42.1867 150.465 40.64C152.278 39.04 153.185 36.9333 153.185 34.32Z" fill="white"/>
</svg>
