<svg width="224" height="74" viewBox="0 0 224 74" fill="none" xmlns="http://www.w3.org/2000/svg">
<path d="M49.16 5.6V15.36H32.04V33.92C32.04 37.9733 31.6133 41.68 30.76 45.04L51.24 60.24L45.08 69.52L26.36 55.44C24.3333 58.64 21.6667 61.4133 18.36 63.76C15.0533 66.1067 11.0267 68.0533 6.28 69.6L0.76 60.32C3.96 59.2 6.73333 57.9467 9.08 56.56C11.4267 55.1733 13.3733 53.4667 14.92 51.44C16.4667 49.36 17.6133 46.9067 18.36 44.08C19.1067 41.2533 19.48 37.84 19.48 33.84V15.36H3.16V5.6H49.16ZM68.36 70.88H55.8V4H68.36V70.88ZM82.3144 15.36V5.6H142.874V30H94.8744V34.96H143.674V44.72H82.3144V20.24H130.314V15.36H82.3144ZM78.3944 51.28H145.194V61.04H118.074V73.36H105.514V61.04H78.3944V51.28ZM174.589 18.96C181.522 18.96 186.695 20.1867 190.109 22.64C193.575 25.0933 195.309 28.6133 195.309 33.2C195.309 37.8933 193.575 41.44 190.109 43.84C186.695 46.1867 181.522 47.36 174.589 47.36C167.762 47.36 162.615 46.1867 159.149 43.84C155.735 41.44 154.029 37.8933 154.029 33.2C154.029 28.6133 155.735 25.0933 159.149 22.64C162.615 20.1867 167.762 18.96 174.589 18.96ZM170.589 51.28V62.8H217.229V72.48H158.029V51.28H170.589ZM216.429 31.12V54.16H203.869V4H216.429V21.36H223.389V31.12H216.429ZM180.909 6.4H197.229V16.16H152.029V6.4H168.349V0.559999H180.909V6.4ZM174.589 27.44C172.402 27.44 170.509 27.8667 168.909 28.72C167.362 29.5733 166.589 31.0667 166.589 33.2C166.589 35.28 167.362 36.7733 168.909 37.68C170.455 38.5333 172.349 38.96 174.589 38.96C175.655 38.96 176.669 38.8533 177.629 38.64C178.642 38.4267 179.522 38.1067 180.269 37.68C181.015 37.2 181.602 36.6133 182.029 35.92C182.509 35.1733 182.749 34.2667 182.749 33.2C182.749 32.1333 182.509 31.2533 182.029 30.56C181.602 29.8133 180.989 29.2267 180.189 28.8C179.442 28.32 178.562 27.9733 177.549 27.76C176.589 27.5467 175.602 27.44 174.589 27.44Z" fill="#333333"/>
</svg>
