<svg width="370" height="72" viewBox="0 0 370 72" fill="none" xmlns="http://www.w3.org/2000/svg">
<path d="M46.4 34.84C46.4 40.92 45.7333 46.0667 44.4 50.28C43.12 54.4933 41.4133 57.88 39.28 60.44C37.2 63.0533 34.7733 64.9467 32 66.12C29.28 67.2933 26.48 67.88 23.6 67.88C20.6667 67.88 17.8133 67.2933 15.04 66.12C12.32 64.9467 9.89333 63.0533 7.76 60.44C5.68 57.88 4 54.4933 2.72 50.28C1.44 46.0667 0.8 40.92 0.8 34.84C0.8 28.76 1.44 23.64 2.72 19.48C4 15.2667 5.68 11.8533 7.76 9.24C9.89333 6.62667 12.32 4.73333 15.04 3.56C17.8133 2.38666 20.6667 1.8 23.6 1.8C26.48 1.8 29.28 2.38666 32 3.56C34.7733 4.73333 37.2 6.62667 39.28 9.24C41.4133 11.8533 43.12 15.2667 44.4 19.48C45.7333 23.64 46.4 28.76 46.4 34.84ZM13.28 34.84C13.28 39.3733 13.5467 43.1333 14.08 46.12C14.6667 49.1067 15.4133 51.5067 16.32 53.32C17.28 55.08 18.3733 56.3333 19.6 57.08C20.88 57.7733 22.2133 58.12 23.6 58.12C24.9333 58.12 26.2133 57.7733 27.44 57.08C28.72 56.3333 29.8133 55.08 30.72 53.32C31.68 51.56 32.4267 49.1867 32.96 46.2C33.5467 43.16 33.84 39.3467 33.84 34.76C33.84 30.2267 33.5467 26.4667 32.96 23.48C32.4267 20.4933 31.68 18.12 30.72 16.36C29.8133 14.6 28.72 13.3733 27.44 12.68C26.2133 11.9333 24.9333 11.56 23.6 11.56C22.2133 11.56 20.88 11.9333 19.6 12.68C18.3733 13.3733 17.28 14.6267 16.32 16.44C15.4133 18.2 14.6667 20.5733 14.08 23.56C13.5467 26.5467 13.28 30.3067 13.28 34.84ZM67.36 67.88H54.8V0.999998H67.36V67.88ZM77.3944 30.68H104.514V26.2H82.1144V1.8H139.474V11.56H94.6744V16.44H140.274V26.2H117.074V30.68H144.194V40.44H77.3944V30.68ZM110.834 71.08C106.034 71.08 101.741 70.84 97.9544 70.36C94.221 69.88 91.0477 69.1067 88.4344 68.04C85.8744 67.0267 83.901 65.6667 82.5144 63.96C81.181 62.2533 80.5144 60.1467 80.5144 57.64C80.5144 55.1867 81.181 53.1067 82.5144 51.4C83.901 49.6933 85.8744 48.3067 88.4344 47.24C91.0477 46.1733 94.221 45.4267 97.9544 45C101.741 44.52 106.034 44.28 110.834 44.28C115.634 44.28 119.901 44.52 123.634 45C127.421 45.4267 130.594 46.1733 133.154 47.24C135.768 48.3067 137.741 49.6933 139.074 51.4C140.461 53.1067 141.154 55.1867 141.154 57.64C141.154 60.1467 140.461 62.2533 139.074 63.96C137.741 65.6667 135.768 67.0267 133.154 68.04C130.594 69.1067 127.421 69.88 123.634 70.36C119.901 70.84 115.634 71.08 110.834 71.08ZM110.834 61.32C116.968 61.32 121.448 61.0533 124.274 60.52C127.154 59.9867 128.594 59.0267 128.594 57.64C128.594 56.2533 127.154 55.2933 124.274 54.76C121.448 54.2267 116.968 53.96 110.834 53.96C104.701 53.96 100.194 54.2267 97.3144 54.76C94.4877 55.2933 93.0744 56.2533 93.0744 57.64C93.0744 59.0267 94.4877 59.9867 97.3144 60.52C100.194 61.0533 104.701 61.32 110.834 61.32ZM181.509 30.92C181.509 34.9733 181.082 38.68 180.229 42.04L200.709 57.24L194.549 66.52L175.829 52.44C173.802 55.64 171.135 58.4133 167.829 60.76C164.522 63.1067 160.495 65.0533 155.749 66.6L150.229 57.32C153.429 56.2 156.202 54.9467 158.549 53.56C160.895 52.1733 162.842 50.4667 164.389 48.44C165.935 46.36 167.082 43.9067 167.829 41.08C168.575 38.2533 168.949 34.84 168.949 30.84V1.64H181.509V30.92ZM217.829 67.88H205.269V0.999998H217.829V67.88ZM228.903 11.56V1.8H268.023V41.08H255.463V11.56H228.903ZM244.823 46.68V59.8H291.463V69.48H232.263V46.68H244.823ZM290.663 24.12V48.76H278.103V0.999998H290.663V14.36H297.623V24.12H290.663ZM353.418 12.44C353.418 11.2133 351.871 10.36 348.778 9.88C345.738 9.4 341.631 9.16 336.458 9.16C331.338 9.16 327.231 9.42666 324.138 9.96C321.098 10.44 319.578 11.2667 319.578 12.44C319.578 13.6667 321.098 14.52 324.138 15C327.231 15.48 331.338 15.72 336.458 15.72C341.631 15.72 345.738 15.48 348.778 15C351.871 14.52 353.418 13.6667 353.418 12.44ZM365.978 12.44C365.978 16.92 363.471 20.0933 358.458 21.96C353.444 23.7733 346.111 24.68 336.458 24.68C326.804 24.68 319.471 23.7733 314.458 21.96C309.498 20.0933 307.018 16.92 307.018 12.44C307.018 7.96 309.498 4.81333 314.458 3C319.471 1.13333 326.804 0.199999 336.458 0.199999C346.111 0.199999 353.444 1.13333 358.458 3C363.471 4.81333 365.978 7.96 365.978 12.44ZM303.098 28.84H369.898V37.8H303.098V28.84ZM353.418 51.8V49H307.018V41.56H365.978V59.24H319.578V62.04H366.778V69.48H307.018V51.8H353.418Z" fill="#333333"/>
</svg>
